<?xml version="1.0" standalone="no"?><!DOCTYPE svg PUBLIC "-//W3C//DTD SVG 1.1//EN" "http://www.w3.org/Graphics/SVG/1.1/DTD/svg11.dtd"><svg t="1739107784296" class="icon" viewBox="0 0 1024 1024" version="1.1" xmlns="http://www.w3.org/2000/svg" p-id="15099" xmlns:xlink="http://www.w3.org/1999/xlink" width="200" height="200"><path d="M0 0m320 0l384 0q320 0 320 320l0 384q0 320-320 320l-384 0q-320 0-320-320l0-384q0-320 320-320Z" fill="#F0F5FF" p-id="15100"></path><path d="M741.4144 606.4384H383.8464c-3.7632 0-7.5264 1.024-12.2368 3.072-4.6976 2.048-8.4608 5.1456-11.2896 10.2784-3.7632 4.096-6.592 10.2656-8.4736 16.4352-1.8816 6.1568-3.7632 13.3504-3.7632 21.568 0 8.2048 0.9472 15.3984 2.816 21.568 1.8944 6.1568 4.7104 12.3136 7.5392 18.4832 2.816 5.1328 6.592 9.2416 11.2896 12.3264 4.7104 3.072 9.408 4.096 14.1184 4.096h357.568a99.9552 99.9552 0 0 1-11.2896-15.3984c-2.816-5.1328-5.6448-10.2656-7.5264-17.4592-1.8816-7.1936-3.7632-14.3744-3.7632-23.616 0-10.2784 0.9344-17.4592 3.7632-24.6528a56.192 56.192 0 0 1 7.5264-15.4112c3.7632-4.096 6.592-8.2176 11.2896-11.2896z" fill="#3B5D92" p-id="15101"></path><path d="M741.4144 753.1264c0 6.0544-3.776 9.0752-11.3408 9.0752H350.8992c-11.3408 0-21.7472-3.0208-29.312-8.064a51.9424 51.9424 0 0 1-19.8528-21.184 106.112 106.112 0 0 1-10.4064-32.2688 268.864 268.864 0 0 1-2.8416-40.3456V339.6352c0-28.2368 7.5648-49.408 21.76-61.5168 14.1824-12.1088 34.0352-19.1616 60.5056-19.1616H681.856c9.4592 0 17.9712 2.0096 25.536 6.0544 7.552 4.032 13.2352 10.0736 17.9584 18.1504 5.6704 6.0416 9.4592 15.1296 12.288 25.216 2.8416 10.0736 3.7888 22.1824 3.7888 33.28v223.872c-66.1888 0-125.76 0-178.7136-0.9984h-188.16c-7.5648 0-14.1824 2.0224-21.76 7.0656-6.6048 5.0432-13.2224 11.0848-18.9056 19.1616a89.6384 89.6384 0 0 0-13.2352 27.2256c-2.8416 11.0976-4.736 22.1824-4.736 33.28 0 14.1184 1.8944 26.2272 5.6832 38.3232 3.776 11.0976 8.512 21.184 14.1824 28.2368 5.6704 8.064 12.288 14.1184 19.8528 18.1504 7.5648 4.0448 14.1824 6.0544 20.8128 6.0544H731.008c2.8416 0 5.6832 1.0112 7.5648 2.0224 1.8944 2.0096 2.8416 5.0432 2.8416 9.0752z" fill="#3B5D92" p-id="15102"></path><path d="M514.944 258.944v215.68l41.728-60.0192 41.7152 60.032V258.944z" fill="#FD8504" p-id="15103"></path></svg>